<svg width="148" height="148" viewBox="0 0 148 148" fill="none" xmlns="http://www.w3.org/2000/svg">
<rect width="148" height="148" rx="74" fill="#EADDFF"/>
<path fill-rule="evenodd" clip-rule="evenodd" d="M96.2009 59.2C96.2009 71.4607 86.2616 81.4 74.0009 81.4C61.7402 81.4 51.8009 71.4607 51.8009 59.2C51.8009 46.9393 61.7402 37 74.0009 37C86.2616 37 96.2009 46.9393 96.2009 59.2ZM88.8009 59.2C88.8009 67.3738 82.1747 74 74.0009 74C65.8271 74 59.2009 67.3738 59.2009 59.2C59.2009 51.0262 65.8271 44.4 74.0009 44.4C82.1747 44.4 88.8009 51.0262 88.8009 59.2Z" fill="#4F378A"/>
<path d="M74.0009 92.5C50.0457 92.5 29.6352 106.665 21.8604 126.511C23.7544 128.391 25.7496 130.17 27.8371 131.839C33.6266 113.618 51.7888 99.9 74.0009 99.9C96.2131 99.9 114.375 113.618 120.165 131.839C122.252 130.17 124.247 128.391 126.141 126.511C118.367 106.665 97.9562 92.5 74.0009 92.5Z" fill="#4F378A"/>
</svg>
