<?xml version="1.0" standalone="no"?>
<!DOCTYPE svg PUBLIC "-//W3C//DTD SVG 20010904//EN"
 "http://www.w3.org/TR/2001/REC-SVG-20010904/DTD/svg10.dtd">
<svg version="1.0" xmlns="http://www.w3.org/2000/svg"
 width="1024.000000pt" height="1024.000000pt" viewBox="0 0 1024.000000 1024.000000"
 preserveAspectRatio="xMidYMid meet">

<g transform="translate(0.000000,1024.000000) scale(0.100000,-0.100000)"
fill="#000000" stroke="none">
<path d="M4978 9280 c-529 -44 -1040 -304 -1367 -697 -253 -303 -395 -642
-441 -1058 -25 -226 -6 -543 44 -728 l23 -88 -27 -14 c-48 -25 -109 -104 -127
-164 -45 -158 31 -579 148 -812 84 -169 168 -263 262 -293 l52 -17 55 -157
c87 -249 213 -487 370 -697 l53 -70 -6 -200 c-10 -327 -52 -464 -182 -583
-104 -95 -269 -172 -1020 -475 -531 -214 -598 -242 -794 -339 -226 -113 -382
-218 -506 -342 -301 -302 -430 -680 -451 -1321 -5 -161 -4 -172 15 -203 12
-18 37 -40 56 -48 52 -21 7918 -21 7970 0 19 8 44 30 56 48 19 31 20 42 14
182 -34 845 -238 1268 -766 1585 -177 105 -386 199 -1009 451 -546 221 -799
331 -888 387 -220 137 -292 316 -292 727 l0 135 52 68 c160 211 276 431 383
731 45 126 48 130 79 136 191 36 412 492 433 896 10 184 -27 276 -141 355 -53
37 -57 42 -51 70 38 182 57 644 36 872 -43 451 -164 768 -391 1016 -112 123
-328 257 -484 302 -44 12 -76 31 -131 78 -87 74 -156 117 -264 163 -199 86
-492 126 -763 104z"/>
</g>
</svg>
