<?xml version="1.0" encoding="UTF-8"?>
<svg version="1.1" xmlns="http://www.w3.org/2000/svg" width="1000" height="1000">
<path d="M0 0 C330 0 660 0 1000 0 C1000 330 1000 660 1000 1000 C670 1000 340 1000 0 1000 C0 670 0 340 0 0 Z " fill="#FEFEFE" transform="translate(0,0)"/>
<path d="M0 0 C1.51913706 -0.00604586 3.03826804 -0.01382625 4.55738831 -0.02318513 C8.7197533 -0.04372634 12.8817734 -0.03938661 17.04416656 -0.03082395 C21.53778284 -0.02588609 26.03131643 -0.04392177 30.52490234 -0.05889893 C39.32305521 -0.08438651 48.12108599 -0.08798124 56.91926956 -0.0832984 C64.07005421 -0.07973152 71.22080181 -0.08323245 78.37158203 -0.09174728 C79.89849088 -0.09353285 79.89849088 -0.09353285 81.45624638 -0.09535449 C83.52420426 -0.097778 85.59216214 -0.10020627 87.66012001 -0.10263924 C107.04898162 -0.12438725 126.43777365 -0.12006631 145.82663918 -0.10786955 C163.56496231 -0.09752793 181.30306589 -0.12005113 199.0413456 -0.15806599 C217.2574582 -0.19680556 235.47346689 -0.21333806 253.68962097 -0.20581949 C263.91571275 -0.20199321 274.14161759 -0.20699244 284.36767578 -0.23524857 C293.07177368 -0.25905612 301.77556951 -0.26190869 310.47967148 -0.23766823 C314.92029889 -0.22587708 319.36037352 -0.22372789 323.80096436 -0.24767303 C327.86741429 -0.26934595 331.93284846 -0.26324071 335.99925041 -0.23514967 C337.46886073 -0.22984314 338.93855008 -0.23462903 340.40808296 -0.25062139 C347.99307993 -0.32742593 353.7273609 -0.31509876 359.60121155 4.84458029 C365.50987365 11.36332143 366.41780079 16.64818531 366.39524841 25.21139526 C366.40048509 26.19345341 366.40572177 27.17551157 366.41111714 28.18732905 C366.42613081 31.48134192 366.4268226 34.77519964 366.42749023 38.06924438 C366.43511082 40.42973595 366.44353814 42.79022503 366.45271301 45.15071106 C366.47467549 51.56610871 366.48345935 57.98145869 366.48853946 64.39688969 C366.49179917 68.40499605 366.49832331 72.41309501 366.50554085 76.42119598 C366.52510398 87.52520564 366.54150982 98.62920641 366.54441738 109.73323441 C366.54460495 110.44348905 366.54479252 111.1537437 366.54498577 111.88552122 C366.54535202 113.32529211 366.54571572 114.765063 366.54607689 116.20483389 C366.5462597 116.9195083 366.54644251 117.63418271 366.54663086 118.37051392 C366.54690168 119.4438387 366.54690168 119.4438387 366.54717798 120.53884682 C366.55071874 132.1302475 366.57773615 143.7214623 366.61512875 155.31279853 C366.65323902 167.22221092 366.67257506 179.13153114 366.67287689 191.04100585 C366.67346086 197.72422913 366.68242883 204.4072614 366.71087456 211.09043121 C366.73703672 217.37780484 366.73927021 223.66473954 366.72321892 229.95214272 C366.72140296 232.25755838 366.72810827 234.56299917 366.74403763 236.86836052 C366.76448755 240.02057771 366.75395145 243.17125768 366.73582458 246.32345581 C366.74902455 247.23154818 366.76222452 248.13964055 366.77582449 249.07525086 C366.68264284 256.19034923 364.53501777 261.93275796 359.57222551 267.14952588 C355.11558365 271.02859221 351.76011507 271.6463957 346.01148701 271.66120052 C344.72507448 271.66689176 343.43866196 271.67258301 342.11326724 271.67844671 C340.67734365 271.6797394 339.24141997 271.68092741 337.80549622 271.68202209 C336.28655593 271.68675195 334.7676169 271.69190271 333.24867934 271.69743973 C329.06372443 271.71136254 324.87877824 271.71893413 320.69380605 271.72541273 C317.106979 271.73177925 313.52016628 271.74184995 309.93334816 271.75197338 C298.11539937 271.78531253 286.29744187 271.80682087 274.47946146 271.82517323 C271.40293266 271.82996739 268.32640421 271.83495081 265.24987578 271.83997846 C246.1513642 271.87094716 227.05284961 271.89763678 207.95431995 271.91439724 C203.52968655 271.91834684 199.10505321 271.92234982 194.68041992 271.92642212 C193.58067806 271.92743048 192.4809362 271.92843884 191.34786882 271.92947776 C173.52841504 271.94648861 155.70910004 271.98760204 137.88971404 272.03844511 C119.60146015 272.09019745 101.31327767 272.1193363 83.02495116 272.12659413 C72.75404551 272.13125922 62.48336717 272.14604032 52.21253395 272.18633842 C43.46625837 272.22061293 34.72025111 272.23458818 25.97391222 272.22191428 C21.51102042 272.21608146 17.04869628 272.21999487 12.58588982 272.25008392 C8.49892348 272.27741424 4.41292893 272.27697281 0.32594129 272.25457347 C-1.15123573 272.25134669 -2.62847744 272.25824167 -4.10554674 272.2763707 C-17.80406967 272.43428714 -17.80406967 272.43428714 -23.35967201 267.32327187 C-28.62348024 261.08016234 -29.46601472 255.35487005 -29.40029907 247.35673523 C-29.40795017 246.35986315 -29.41560126 245.36299106 -29.42348421 244.33591074 C-29.44405271 241.00958147 -29.43617794 237.68394859 -29.42822266 234.35757446 C-29.43692067 231.96708032 -29.44728823 229.57659175 -29.459198 227.18611145 C-29.48318157 221.37547684 -29.48828597 215.56505746 -29.48359747 209.75437934 C-29.48002533 205.02970264 -29.48354276 200.30508193 -29.49204636 195.58041191 C-29.49323673 194.90690619 -29.49442711 194.23340048 -29.49565356 193.5394855 C-29.49807717 192.17108134 -29.50050543 190.80267719 -29.50293832 189.43427306 C-29.52466918 176.61409413 -29.52037369 163.79402053 -29.50816862 150.9738357 C-29.49782985 139.25647916 -29.52034546 127.53945514 -29.55836506 115.82216436 C-29.59714744 103.777034 -29.61362957 91.73206085 -29.60611856 79.68686765 C-29.60229857 72.92988254 -29.6072297 66.17318046 -29.63554764 59.41624641 C-29.66069968 53.06226135 -29.65682128 46.70894196 -29.63072586 40.35496712 C-29.62599429 38.02536799 -29.63146401 35.69572204 -29.64797211 33.36617661 C-29.66891305 30.18102506 -29.65270715 26.99810611 -29.62734985 23.81303406 C-29.64209842 22.8953152 -29.65684699 21.97759635 -29.67204249 21.03206784 C-29.55765981 14.18379538 -27.57869497 9.54524209 -22.87890625 4.52139282 C-16.48732321 -1.0046921 -7.96060936 -0.04488659 0 0 Z " fill="#BABABA" transform="translate(380.87890625,302.4786071777344)"/>
<path d="M0 0 C11.5104395 6.73252121 14.33665991 20.59501756 18.16992188 32.53051758 C19.6529576 37.12335733 21.37521267 41.51084865 23.3125 45.9375 C24.34574079 48.52934116 25.33350736 51.13724419 26.3125 53.75 C26.57667725 54.45286133 26.84085449 55.15572266 27.11303711 55.87988281 C28.50237153 59.61858045 29.78600396 63.34801111 30.875 67.1875 C31.9128768 70.84448944 33.24744915 74.25770758 34.75 77.75 C37.01032304 83.01729933 38.74279738 88.32468864 40.3203125 93.83203125 C41.43246385 97.3129774 42.86981635 100.58105234 44.3125 103.9375 C45.12856034 106.3251346 45.91978568 108.72138435 46.6875 111.125 C48.57381636 116.94054076 50.77062837 122.53702345 53.1875 128.15625 C54.58273582 131.605583 55.61432681 135.10135015 56.62109375 138.6796875 C57.28037584 140.83259737 58.07721679 142.82341686 59 144.875 C60.3125 147.9375 60.3125 147.9375 60.3125 150.9375 C53.57406565 151.32117298 46.83848086 151.58179291 40.09155273 151.76147461 C37.80272257 151.83643102 35.51459922 151.93844919 33.22827148 152.0690918 C13.20075304 153.18391764 13.20075304 153.18391764 6.97900391 147.71630859 C4.08939625 144.6393731 1.69900259 141.32873467 -0.53326416 137.75254822 C-2.13690018 135.23081341 -4.01974933 132.97494049 -5.9375 130.6875 C-6.86949219 129.50607422 -6.86949219 129.50607422 -7.8203125 128.30078125 C-13.65422364 120.91685607 -19.70432298 113.70067999 -25.6875 106.4375 C-27.47943263 104.2618037 -29.27128744 102.08604343 -31.06298828 99.91015625 C-32.0689458 98.6886148 -33.07509302 97.46722951 -34.08154297 96.24609375 C-39.04868612 90.2169033 -43.92962487 84.13344672 -48.6875 77.9375 C-53.50366186 78.4146151 -56.54105312 80.75034069 -60.25 83.625 C-61.58563728 84.63233636 -62.92296668 85.63743191 -64.26171875 86.640625 C-64.97505371 87.17623047 -65.68838867 87.71183594 -66.42333984 88.26367188 C-70.41375268 91.21366868 -74.48950484 94.04069319 -78.5625 96.875 C-80.27607702 98.07026182 -81.98961878 99.26557418 -83.703125 100.4609375 C-84.54037109 101.04456055 -85.37761719 101.62818359 -86.24023438 102.22949219 C-96.54293785 109.42000631 -106.77443659 116.7047581 -116.94873047 124.07568359 C-122.71115541 128.24554751 -128.50782155 132.36448208 -134.328125 136.453125 C-134.9571875 136.89527344 -135.58625 137.33742187 -136.234375 137.79296875 C-137.21304535 138.45403122 -137.21304535 138.45403122 -138.21148682 139.12844849 C-140.80141828 140.95540981 -140.80141828 140.95540981 -143.40814209 143.39376831 C-153.7971189 152.41512263 -163.50294948 152.29035625 -176.78125 152.02734375 C-178.90246255 152.02350336 -181.02368891 152.02453594 -183.14489746 152.03016663 C-188.69688332 152.0339579 -194.24676496 151.98099419 -199.79827881 151.9128418 C-208.67941444 151.81368092 -217.56110455 151.80318564 -226.44270325 151.79007149 C-229.5193119 151.77764442 -232.59490777 151.74176124 -235.67126465 151.7016449 C-254.87094601 151.52700314 -272.08617354 154.238801 -286.6875 167.9375 C-292.19234419 173.57476313 -296.42533336 179.73456709 -300.0625 186.6875 C-300.54505249 187.57876587 -300.54505249 187.57876587 -301.03735352 188.48803711 C-307.22048784 201.01611657 -307.14957854 215.26863462 -307.19921875 228.90234375 C-307.21611023 230.67453721 -307.23426628 232.44671901 -307.25361633 234.21888733 C-307.30063811 238.83003086 -307.33075413 243.44112717 -307.35705566 248.0524292 C-307.38710577 252.77918833 -307.43355046 257.50578527 -307.47851562 262.23242188 C-307.56400286 271.46736222 -307.63158749 280.70233647 -307.6875 289.9375 C-310.04548287 286.91037604 -311.36374463 284.4285619 -312.5 280.75 C-314.14578807 275.59193624 -315.87755143 270.4770998 -317.6875 265.375 C-317.94619873 264.64434326 -318.20489746 263.91368652 -318.47143555 263.16088867 C-320.51222029 257.40829334 -322.58803921 251.66893936 -324.6875 245.9375 C-326.89813065 239.8830789 -329.08791913 233.82195166 -331.25 227.75 C-332.76611999 223.49746831 -334.30003483 219.25497192 -335.90087891 215.03369141 C-339.5181994 205.3942396 -342.9420727 195.68060211 -346.41992188 185.99023438 C-350.31376733 175.11485778 -350.31376733 175.11485778 -354.5625 164.375 C-363.47307948 142.02947704 -363.47307948 142.02947704 -360.625 132.3125 C-353.66101169 120.18168165 -337.65848532 117.11245255 -325.125 113.11328125 C-321.64543097 111.97143864 -321.64543097 111.97143864 -318.19921875 110.44140625 C-314.67507598 108.93217937 -311.15075661 107.72855088 -307.5 106.5625 C-301.67775229 104.67400819 -296.0752961 102.47337496 -290.44921875 100.0546875 C-287.10442372 98.70163039 -283.7186198 97.72832866 -280.25 96.75 C-277.30814693 95.81721732 -274.52386067 94.65308314 -271.6875 93.4375 C-267.25680401 91.53863029 -262.8827353 90.05666893 -258.25 88.75 C-255.30814693 87.81721732 -252.52386067 86.65308314 -249.6875 85.4375 C-246.05208583 83.87946536 -242.4937593 82.51106032 -238.6875 81.4375 C-234.94239343 80.38026896 -231.44875283 79.04097599 -227.875 77.5 C-223.69519356 75.70712528 -219.54950351 74.22473401 -215.1875 72.9375 C-211.05695047 71.71489631 -207.13531046 70.34655939 -203.1875 68.625 C-197.62070656 66.21913847 -191.94742012 64.31569087 -186.1875 62.4375 C-179.55906568 60.27287654 -173.10321467 57.96696751 -166.703125 55.1875 C-158.11199245 51.62640879 -149.21530199 48.7483878 -140.375 45.875 C-135.30952971 44.2119181 -130.4548984 42.18357022 -125.5546875 40.08984375 C-122.16770436 38.72859031 -118.74718141 37.73664451 -115.23828125 36.74609375 C-112.36116875 35.83405349 -109.64627439 34.69495318 -106.875 33.5 C-101.64335766 31.25595367 -96.37261722 29.58233149 -90.91796875 27.97265625 C-86.66787156 26.61077505 -82.63064652 24.86211648 -78.53515625 23.09765625 C-75.07446608 21.68774544 -71.57451112 20.63658438 -67.984375 19.61328125 C-63.71901677 18.35833742 -59.60480794 16.72697974 -55.49609375 15.03515625 C-49.18889918 12.44785568 -42.78656427 10.2724679 -36.30078125 8.18359375 C-32.6716749 6.93204248 -29.19982797 5.48435954 -25.6875 3.9375 C-16.63162916 0.02650955 -9.68584436 -2.79083651 0 0 Z " fill="#BABABA" transform="translate(614.6875,107.0625)"/>
<path d="M0 0 C3.41900396 1.58938738 4.23940688 4.7155719 5.62304688 8.02490234 C5.94016632 8.74971802 6.25728577 9.47453369 6.58401489 10.22131348 C7.62134395 12.60059838 8.63768597 14.98826339 9.65429688 17.37646484 C10.36683045 19.02050612 11.08087124 20.66389494 11.79638672 22.30664062 C13.23962643 25.62400173 14.67574936 28.94430064 16.10644531 32.26708984 C18.93765993 38.83034506 21.85878655 45.35254348 24.77929688 51.87646484 C42.54122392 91.65396416 36.15429688 97.88432465 36.15429688 159.00146484 C-61.52570313 159.00146484 -159.20570313 159.00146484 -259.84570312 159.00146484 C-259.84570312 109.97032032 -259.84570312 109.97032032 -249.36767578 90.88867188 C-247.34613038 87.05376717 -245.7189433 83.10269457 -244.1081543 79.08129883 C-242.76585431 75.80666833 -241.33692825 72.5794252 -239.89268494 69.34880066 C-238.23275681 65.62723769 -236.6087282 61.89015702 -234.98242188 58.15380859 C-234.62735062 57.33884415 -234.27227936 56.5238797 -233.90644836 55.68421936 C-232.78172212 53.10260327 -231.65743555 50.52079602 -230.53320312 47.93896484 C-229.05811623 44.55217049 -227.58283191 41.16546219 -226.10742188 37.77880859 C-225.74993866 36.95818939 -225.39245544 36.13757019 -225.0241394 35.29208374 C-221.6397039 27.52487608 -218.24453186 19.76238327 -214.84570312 12.00146484 C-210.8421751 13.82168273 -208.52632508 16.39334391 -205.78320312 19.75146484 C-205.30278564 20.32928711 -204.82236816 20.90710938 -204.32739258 21.50244141 C-200.52889201 26.09805109 -196.84381063 30.78098227 -193.18334961 35.48681641 C-189.4860888 40.22752782 -185.68145153 44.87236431 -181.84570312 49.50146484 C-177.54154031 54.69586247 -173.29894414 59.92583716 -169.15820312 65.25146484 C-165.1357251 70.4241709 -160.97146093 75.45129819 -156.71289062 80.4309082 C-152.94572227 84.84675989 -149.34889013 89.3743885 -145.84570312 94.00146484 C-139.84395333 89.06182246 -134.35441336 83.66341167 -128.87548828 78.16162109 C-127.35233924 76.63312426 -125.8239331 75.11003246 -124.29492188 73.58740234 C-119.64753383 68.9433717 -115.12156138 64.24899793 -110.83984375 59.26220703 C-106.43640194 54.27005826 -101.82296654 49.47719998 -97.17871094 44.7097168 C-95.96090316 43.45022328 -94.75307324 42.18100186 -93.55566406 40.90209961 C-84.92857032 31.70120712 -78.1645145 27.0136135 -65.84570312 24.00146484 C-64.368158 23.4962282 -62.89794305 22.9678724 -61.44335938 22.39990234 C-60.25613281 21.93841797 -59.06890625 21.47693359 -57.84570312 21.00146484 C-55.73046806 20.17111023 -53.61634983 19.33802252 -51.50317383 18.50244141 C-43.79825793 15.46216446 -36.06958308 12.65756126 -28.17773438 10.14208984 C-24.79557171 9.03160121 -24.79557171 9.03160121 -21.41210938 7.52490234 C-17.64840056 5.91718445 -13.86413394 4.62297827 -9.97070312 3.37646484 C-6.77071697 2.35051508 -3.08663409 0.00244971 0 0 Z " fill="#FEFEFE" transform="translate(663.845703125,365.99853515625)"/>
<path d="M0 0 C8.30510548 6.57552441 13.16163203 16.0773874 14.70703125 26.4609375 C15.93879421 39.69654762 14.47842299 52.45054125 6.39453125 63.46484375 C0.74758905 70.14444436 -5.01274537 73.72537525 -13.29296875 76.4609375 C-14.28296875 76.7909375 -15.27296875 77.1209375 -16.29296875 77.4609375 C-26.16199166 78.36790183 -36.60064344 78.72901345 -45.29296875 73.4609375 C-45.99421875 73.0484375 -46.69546875 72.6359375 -47.41796875 72.2109375 C-55.47906272 66.83687485 -60.54622479 58.61675071 -63.29296875 49.4609375 C-66.0744839 35.47500923 -64.96430535 20.90480227 -57.08984375 8.78125 C-43.45455645 -8.82605577 -18.45235385 -12.38539594 0 0 Z " fill="#BABABA" transform="translate(736.29296875,680.5390625)"/>
<path d="M0 0 C8.58 0 17.16 0 26 0 C31.83688817 17.79539077 36.47508717 35.83380584 41 54 C41.15557373 53.35675781 41.31114746 52.71351563 41.47143555 52.05078125 C45.7779185 34.32545544 50.75169717 17.13820205 57 0 C65.25 0 73.5 0 82 0 C83.12540809 12.379489 83.12540809 12.379489 83.38891602 17.47436523 C83.44890274 18.61602646 83.50888947 19.75768768 83.57069397 20.9339447 C83.63115402 22.13007889 83.69161407 23.32621307 83.75390625 24.55859375 C83.81907944 25.82413589 83.88425262 27.08967804 83.95140076 28.39356995 C84.08776753 31.0550552 84.22322054 33.71656814 84.35717773 36.37817383 C84.52729228 39.75444959 84.70216076 43.13045989 84.87835789 46.506423 C85.04807548 49.77366738 85.21323364 53.04114215 85.37890625 56.30859375 C85.44139053 57.5027037 85.50387482 58.69681366 85.56825256 59.92710876 C85.93403488 67.29502829 86.05566695 74.62290314 86 82 C80.06 82 74.12 82 68 82 C67.31807878 77.9084727 66.84395791 74.35184883 66.70288086 70.27001953 C66.66291489 69.16933136 66.62294891 68.06864319 66.58177185 66.93460083 C66.54318558 65.76251068 66.5045993 64.59042053 66.46484375 63.3828125 C66.40037804 61.56437332 66.40037804 61.56437332 66.33460999 59.709198 C66.19856612 55.84791676 66.06796168 51.98647348 65.9375 48.125 C65.84606204 45.50259163 65.75426928 42.8801956 65.66210938 40.2578125 C65.43729335 33.83867908 65.21693964 27.41940417 65 21 C64.79842285 21.69266464 64.5968457 22.38532928 64.38916016 23.09898376 C63.46819728 26.26272732 62.54660407 29.42628692 61.625 32.58984375 C61.14933594 34.22439514 61.14933594 34.22439514 60.6640625 35.89196777 C58.85959526 42.08425086 57.02745349 48.26383352 55.109375 54.421875 C53.46905103 59.71249737 51.86124596 65.01296118 50.25 70.3125 C49.77240234 71.88269897 49.77240234 71.88269897 49.28515625 73.48461914 C48.52325823 75.98969158 47.76160348 78.494838 47 81 C42.05 81 37.1 81 32 81 C28.59920303 69.65149932 25.37870391 58.2654053 22.3503418 46.81176758 C21.67736714 44.2742937 20.99392492 41.73976735 20.31054688 39.20507812 C19.87696152 37.57048283 19.44399504 35.93572322 19.01171875 34.30078125 C18.80866623 33.55387527 18.60561371 32.8069693 18.39640808 32.03742981 C17.3245105 27.92926616 16.78491631 24.24445738 17 20 C16.34 20 15.68 20 15 20 C15.00785522 20.93960571 15.00785522 20.93960571 15.01586914 21.89819336 C15.10291665 34.04627869 15.05076603 46.17255736 14.5625 58.3125 C14.52326416 59.30564209 14.48402832 60.29878418 14.44360352 61.32202148 C14.14214547 68.23356925 13.60790338 75.10872551 13 82 C7.39 82 1.78 82 -4 82 C-4.27773969 65.4310916 -3.25711647 49.01013955 -2.14575195 32.4909668 C-1.89991174 28.8165409 -1.66123588 25.14164952 -1.421875 21.46679688 C-0.95474691 14.3107328 -0.47929068 7.15526165 0 0 Z " fill="#BABABA" transform="translate(224,675)"/>
<path d="M0 0 C1.19882812 -0.02900391 2.39765625 -0.05800781 3.6328125 -0.08789062 C13.92838972 -0.16047333 24.24870013 1.27159769 31.9140625 8.75 C35.50828541 12.95376948 36.77913275 16.73845397 36.53515625 22.296875 C35.6759016 28.37051058 32.82275622 32.40892762 28.25 36.3125 C26.93079006 37.00669547 25.59953752 37.67927751 24.25 38.3125 C24.84167969 38.66441406 25.43335938 39.01632812 26.04296875 39.37890625 C31.7566576 42.94879667 36.80025106 46.5302113 38.8515625 53.296875 C40.41466908 61.20435537 38.61300748 66.6619822 34.25 73.3125 C29.18340962 79.77343814 21.92400254 81.3563817 14.25 83.3125 C13.63890381 83.49047119 13.02780762 83.66844238 12.39819336 83.85180664 C9.84866099 84.39856963 7.49834948 84.44216199 4.890625 84.4453125 C3.85679687 84.44660156 2.82296875 84.44789063 1.7578125 84.44921875 C0.14519531 84.44341797 0.14519531 84.44341797 -1.5 84.4375 C-2.55960938 84.44136719 -3.61921875 84.44523438 -4.7109375 84.44921875 C-6.26941406 84.44728516 -6.26941406 84.44728516 -7.859375 84.4453125 C-8.79749023 84.44418457 -9.73560547 84.44305664 -10.70214844 84.44189453 C-14.40062663 84.28487807 -18.07677612 83.77165298 -21.75 83.3125 C-21.75 56.2525 -21.75 29.1925 -21.75 1.3125 C-14.39076992 0.39259624 -7.39048175 0.05884142 0 0 Z " fill="#BABABA" transform="translate(634.75,795.6875)"/>
<path d="M0 0 C7.26 0 14.52 0 22 0 C23.35931641 2.42859375 23.35931641 2.42859375 24.74609375 4.90625 C25.62503296 6.47608643 25.62503296 6.47608643 26.52172852 8.07763672 C27.80530232 10.37063246 29.08833747 12.66392981 30.37084961 14.95751953 C33.15066009 19.92615441 35.93101431 24.89384814 38.7578125 29.8359375 C39.35251343 30.87911133 39.35251343 30.87911133 39.95922852 31.94335938 C40.98108029 33.73244795 42.00790477 35.51869384 43.03515625 37.3046875 C45.5800579 42.090924 47.75687564 47.06512641 50 52 C50.33 34.84 50.66 17.68 51 0 C56.61 0 62.22 0 68 0 C68 27.06 68 54.12 68 82 C61.4 82 54.8 82 48 82 C42.07972291 74.47776558 42.07972291 74.47776558 40.5 70.6015625 C38.62618647 66.2838515 36.51864547 62.14434088 34.25 58.0234375 C33.91627884 57.41564453 33.58255768 56.80785156 33.23872375 56.18164062 C32.55853856 54.94346212 31.87802096 53.70546615 31.19717407 52.46765137 C29.58361562 49.52291329 27.99690158 46.56506582 26.41796875 43.6015625 C25.87938232 42.59432129 25.3407959 41.58708008 24.78588867 40.54931641 C22.38060701 35.76900407 20.21439739 30.87167426 18 26 C17.67 44.48 17.34 62.96 17 82 C11.39 82 5.78 82 0 82 C0 54.94 0 27.88 0 0 Z " fill="#BBBBBB" transform="translate(589,675)"/>
<path d="M0 0 C8.58 0 17.16 0 26 0 C28.94266845 9.30704441 28.94266845 9.30704441 30.35546875 13.7890625 C31.33300334 16.88938886 32.31398202 19.98854886 33.30078125 23.0859375 C35.68771889 30.62772745 37.9199042 38.19750819 40.0625 45.8125 C41.83904165 52.11849337 43.71504921 58.30924646 46.0546875 64.43359375 C51 77.85950413 51 77.85950413 51 82 C44.07 82 37.14 82 30 82 C29.175 79.091875 28.35 76.18375 27.5 73.1875 C27.23896484 72.27508545 26.97792969 71.3626709 26.70898438 70.42260742 C26.50595703 69.69920166 26.30292969 68.9757959 26.09375 68.23046875 C25.77954102 67.12288208 25.77954102 67.12288208 25.45898438 65.99291992 C25 64 25 64 25 61 C17.08 61.33 9.16 61.66 1 62 C-0.60274479 67.83311522 -0.60274479 67.83311522 -2.20092773 73.66748047 C-2.40145752 74.39338379 -2.6019873 75.11928711 -2.80859375 75.8671875 C-3.01282959 76.61081543 -3.21706543 77.35444336 -3.42749023 78.12060547 C-4 80 -4 80 -5 82 C-11.27 82 -17.54 82 -24 82 C-22.74164697 74.6786733 -20.75413526 67.74534986 -18.48828125 60.6796875 C-16.7594042 55.28559112 -15.13506877 49.86060339 -13.5 44.4375 C-11.5499702 37.986313 -9.55134643 31.56597443 -7.375 25.1875 C-4.55432577 16.8847845 -2.29570493 8.46131246 0 0 Z " fill="#BABABA" transform="translate(548,797)"/>
<path d="M0 0 C1.5631897 0.00785522 1.5631897 0.00785522 3.15795898 0.01586914 C4.28266602 0.0190918 5.40737305 0.02231445 6.56616211 0.02563477 C7.75016602 0.03401367 8.93416992 0.04239258 10.15405273 0.05102539 C11.34192383 0.05553711 12.52979492 0.06004883 13.75366211 0.06469727 C16.69967499 0.07652864 19.64558954 0.09301252 22.59155273 0.11352539 C25.03415495 6.61479112 27.25875199 13.08601212 29.02905273 19.80102539 C32.57473649 32.86155287 36.76390133 45.67624824 41.06005859 58.50683594 C47.59155273 78.04714506 47.59155273 78.04714506 47.59155273 82.11352539 C40.99155273 82.11352539 34.39155273 82.11352539 27.59155273 82.11352539 C26.60155273 79.01977539 25.61155273 75.92602539 24.59155273 72.73852539 C24.27831055 71.7647998 23.96506836 70.79107422 23.64233398 69.7878418 C23.39870117 69.02133301 23.15506836 68.25482422 22.90405273 67.46508789 C22.65268555 66.67956543 22.40131836 65.89404297 22.14233398 65.0847168 C21.59155273 63.11352539 21.59155273 63.11352539 21.59155273 61.11352539 C13.67155273 61.11352539 5.75155273 61.11352539 -2.40844727 61.11352539 C-3.68012361 66.52800245 -3.68012361 66.52800245 -4.95117188 71.94262695 C-5.11109619 72.62292969 -5.27102051 73.30323242 -5.43579102 74.00415039 C-5.59813232 74.69541016 -5.76047363 75.38666992 -5.92773438 76.09887695 C-6.40694752 78.10724001 -6.90767331 80.11042958 -7.40844727 82.11352539 C-14.00844727 82.11352539 -20.60844727 82.11352539 -27.40844727 82.11352539 C-25.74808116 75.03512251 -23.82023053 68.19086525 -21.45654297 61.31640625 C-19.58444857 55.79963637 -17.98022143 50.22240451 -16.40844727 44.61352539 C-14.35504308 37.29189697 -12.10588147 30.09981411 -9.63891602 22.90649414 C-7.91716354 17.59912382 -6.4540943 12.22866241 -5.01953125 6.83740234 C-3.22313655 0.15192686 -3.22313655 0.15192686 0 0 Z " fill="#BABABA" transform="translate(364.408447265625,796.886474609375)"/>
<path d="M0 0 C8.25 0 16.5 0 25 0 C29.51724138 11.29310345 29.51724138 11.29310345 30.875 15.8125 C31.36613281 17.44251953 31.36613281 17.44251953 31.8671875 19.10546875 C32.74673015 22.10245845 33.59805729 25.10701652 34.4453125 28.11328125 C34.96333525 29.95057905 35.48156799 31.78781765 36 33.625 C36.38925659 35.00486084 36.38925659 35.00486084 36.78637695 36.41259766 C38.30712833 41.74652615 40.00333449 46.93544233 41.99609375 52.11328125 C43.66398688 56.90928524 44.9432561 61.81653039 46.25024414 66.72143555 C47.08639662 69.83553489 47.9188417 72.80290128 49.1484375 75.7890625 C50 78 50 78 50 82 C43.4 82 36.8 82 30 82 C27.03 72.1 27.03 72.1 24 62 C16.08 61.67 8.16 61.34 0 61 C-0.33 63.31 -0.66 65.62 -1 68 C-2.221181 72.70326335 -3.62371712 77.3383967 -5 82 C-11.27 82 -17.54 82 -24 82 C-23.28269873 76.26158986 -22.54532402 71.97488387 -20.8125 66.625 C-20.59327881 65.94074951 -20.37405762 65.25649902 -20.14819336 64.55151367 C-18.97907427 60.92342546 -17.77020182 57.30934476 -16.546875 53.69921875 C-13.54500235 44.83470172 -10.78907236 35.94670716 -8.26342773 26.93408203 C-5.71718258 17.88655306 -2.8695216 8.9501745 0 0 Z " fill="#BABABA" transform="translate(212,797)"/>
<path d="M0 0 C8.25 0 16.5 0 25 0 C29.90485249 14.60308354 34.51158399 29.23135493 38.71435547 44.05200195 C41.00112206 52.08165461 43.47679872 60.04221136 46 68 C46.77601868 70.47760459 47.5449898 72.9572302 48.3125 75.4375 C48.63863281 76.48808594 48.96476562 77.53867187 49.30078125 78.62109375 C50 81 50 81 50 82 C43.4 82 36.8 82 30 82 C29.01 78.90625 28.02 75.8125 27 72.625 C26.68675781 71.65127441 26.37351562 70.67754883 26.05078125 69.67431641 C25.80714844 68.90780762 25.56351562 68.14129883 25.3125 67.3515625 C25.06113281 66.56604004 24.80976563 65.78051758 24.55078125 64.97119141 C24 63 24 63 24 61 C16.08 61 8.16 61 0 61 C-1.27313324 66.78830779 -1.27313324 66.78830779 -2.54272461 72.57739258 C-2.78261108 73.66250122 -2.78261108 73.66250122 -3.02734375 74.76953125 C-3.18968506 75.50792236 -3.35202637 76.24631348 -3.51928711 77.00708008 C-4 79 -4 79 -5 82 C-11.6 82 -18.2 82 -25 82 C-22.86020577 74.04841896 -20.59911077 66.14209211 -18.25 58.25 C-17.90219482 57.07985352 -17.55438965 55.90970703 -17.19604492 54.70410156 C-7.47754601 22.06336525 -7.47754601 22.06336525 -2 6 C-1.34 4.02 -0.68 2.04 0 0 Z " fill="#BABABA" transform="translate(346,675)"/>
<path d="M0 0 C1.52480529 3.04961059 0.48319094 5.2882993 -0.25 8.5625 C-0.62898438 10.32787109 -0.62898438 10.32787109 -1.015625 12.12890625 C-1.34046875 13.07636719 -1.6653125 14.02382813 -2 15 C-5 16 -5 16 -7.609375 15.0859375 C-16.70278025 12.17353351 -29.53848463 12.48429238 -38.12109375 16.73828125 C-43.28664768 20.207042 -46.08673184 25.13427388 -48 31 C-49.1526827 40.4231811 -48.83345677 49.16032793 -43 57 C-39.08184471 61.66554908 -33.863554 63.84367802 -28 65 C-21.318816 65.64252719 -21.318816 65.64252719 -15 64 C-15 58.72 -15 53.44 -15 48 C-18.96 47.67 -22.92 47.34 -27 47 C-27 42.38 -27 37.76 -27 33 C-17.1 33 -7.2 33 3 33 C3 47.52 3 62.04 3 77 C-16.08534373 81.2411875 -35.60779875 84.85878304 -53 74 C-59.17118555 69.88996589 -62.6817122 64.55613226 -66 58 C-66.34289062 57.32453125 -66.68578125 56.6490625 -67.0390625 55.953125 C-70.86785878 46.72107416 -70.43860796 33.5530791 -67.03125 24.26171875 C-61.7687572 12.72011523 -54.60786662 4.82028733 -42.72265625 -0.03515625 C-30.20877 -4.46977591 -12.31779721 -5.71336126 0 0 Z " fill="#BABABA" transform="translate(472,677)"/>
<path d="M0 0 C16.83 0 33.66 0 51 0 C51 4.95 51 9.9 51 15 C40.44 15 29.88 15 19 15 C19 20.61 19 26.22 19 32 C28.9 32 38.8 32 49 32 C49 36.95 49 41.9 49 47 C39.1 47 29.2 47 19 47 C19 53.6 19 60.2 19 67 C29.89 67 40.78 67 52 67 C52 71.95 52 76.9 52 82 C34.84 82 17.68 82 0 82 C0 54.94 0 27.88 0 0 Z " fill="#BABABA" transform="translate(493,675)"/>
<path d="M0 0 C16.5 0 33 0 50 0 C50 4.95 50 9.9 50 15 C39.44 15 28.88 15 18 15 C18 20.61 18 26.22 18 32 C27.9 32 37.8 32 48 32 C48 36.95 48 41.9 48 47 C38.1 47 28.2 47 18 47 C18 53.6 18 60.2 18 67 C29.22 67 40.44 67 52 67 C52 71.95 52 76.9 52 82 C34.84 82 17.68 82 0 82 C0 54.94 0 27.88 0 0 Z " fill="#BABABA" transform="translate(755,797)"/>
<path d="M0 0 C6.6 0 13.2 0 20 0 C24.84096272 14.87710494 29.06537694 29.85896112 33 45 C33.2882666 46.09328613 33.5765332 47.18657227 33.87353516 48.31298828 C34.28611572 49.90796143 34.28611572 49.90796143 34.70703125 51.53515625 C34.95557861 52.48914307 35.20412598 53.44312988 35.46020508 54.42602539 C36 57 36 57 36 61 C36.66 61 37.32 61 38 61 C38.13019531 59.98164062 38.26039063 58.96328125 38.39453125 57.9140625 C38.95396882 54.2975693 39.72645057 50.90290298 40.6875 47.375 C40.94478882 46.42826416 40.94478882 46.42826416 41.20727539 45.46240234 C43.47876891 37.16107184 45.85430893 28.88829475 48.24316406 20.62011719 C48.74384891 18.88677855 49.243219 17.15305955 49.74121094 15.41894531 C50.42812419 13.02826351 51.11951126 10.63892676 51.8125 8.25 C52.01931396 7.52893066 52.22612793 6.80786133 52.43920898 6.06494141 C53.88502837 1.11497163 53.88502837 1.11497163 55 0 C56.4887186 -0.08669432 57.981445 -0.10703494 59.47265625 -0.09765625 C60.37177734 -0.09443359 61.27089844 -0.09121094 62.19726562 -0.08789062 C63.61555664 -0.07532227 63.61555664 -0.07532227 65.0625 -0.0625 C66.4865918 -0.05573242 66.4865918 -0.05573242 67.93945312 -0.04882812 C70.29303065 -0.0370011 72.64648477 -0.02052025 75 0 C68.04205315 21.72571576 60.89269468 43.37532656 53.45849609 64.94311523 C53.02271996 66.20966446 53.02271996 66.20966446 52.57814026 67.50180054 C52.03412452 69.08204661 51.48859689 70.66177333 50.94126892 72.24087524 C49.82503093 75.48216882 48.83235622 78.67057512 48 82 C40.41 82 32.82 82 25 82 C24.17757813 79.38835937 23.35515625 76.77671875 22.5078125 74.0859375 C21.38132553 70.51527182 20.2531524 66.94513979 19.125 63.375 C18.83265472 62.44894958 18.54030945 61.52289917 18.23910522 60.56878662 C15.22147408 51.0174521 12.19285509 41.47228962 8.98046875 31.984375 C8.75053223 31.30400177 8.5205957 30.62362854 8.28369141 29.92263794 C7.22490693 26.79627312 6.15590297 23.67420531 5.07275391 20.55615234 C2.74223351 13.72730096 1.11341047 7.13297189 0 0 Z " fill="#BABABA" transform="translate(263,797)"/>
<path d="M0 0 C21.12 0 42.24 0 64 0 C64 4.95 64 9.9 64 15 C56.41 15 48.82 15 41 15 C41 37.11 41 59.22 41 82 C35.06 82 29.12 82 23 82 C22.67 60.22 22.34 38.44 22 16 C14.74 15.67 7.48 15.34 0 15 C0 10.05 0 5.1 0 0 Z " fill="#BABABA" transform="translate(756,675)"/>
<path d="M0 0 C6.27 0 12.54 0 19 0 C19 22.11 19 44.22 19 67 C29.89 67 40.78 67 52 67 C52 72.28 52 77.56 52 83 C34.84 83 17.68 83 0 83 C0 55.61 0 28.22 0 0 Z " fill="#BBBBBB" transform="translate(689,796)"/>
<path d="M0 0 C5.94 0 11.88 0 18 0 C18 21.78 18 43.56 18 66 C28.89 66 39.78 66 51 66 C51 71.28 51 76.56 51 82 C34.17 82 17.34 82 0 82 C0 54.94 0 27.88 0 0 Z " fill="#BABABA" transform="translate(464,797)"/>
<path d="M0 0 C6.46707204 2.7716023 9.56941499 8.4609221 12.12109375 14.7734375 C14.55765354 23.71831923 14.24573867 35.68666555 10 44 C7.02093457 48.25991965 3.96793106 52.1234275 -1 54 C-6.41307282 54.72530595 -12.15728084 55.10474014 -16.9375 52.125 C-21.89778615 47.89238419 -24.63961797 41.26522554 -26 35 C-26.62520565 23.21727811 -26.71003585 13.6926165 -19 4 C-13.58821332 -1.27302292 -7.11206064 -0.87086457 0 0 Z " fill="#FEFEFE" transform="translate(718,689)"/>
<path d="M0 0 C6.27 0 12.54 0 19 0 C19 27.39 19 54.78 19 83 C12.73 83 6.46 83 0 83 C0 55.61 0 28.22 0 0 Z " fill="#BBBBBB" transform="translate(426,796)"/>
<path d="M0 0 C5.94 0 11.88 0 18 0 C18 27.06 18 54.12 18 82 C12.06 82 6.12 82 0 82 C0 54.94 0 27.88 0 0 Z " fill="#BABABA" transform="translate(184,675)"/>
<path d="M0 0 C9.13584806 0 14.02812172 0.02109129 21 5.25 C23.5875698 8.80790847 23.6165648 10.68404642 23 15 C20.85448348 19.96856457 17.67378598 21.66310701 13 24 C8.66396021 24.1393329 4.33919329 24.04254111 0 24 C0 16.08 0 8.16 0 0 Z " fill="#FCFCFC" transform="translate(631,842)"/>
<path d="M0 0 C3.5578125 -0.12375 3.5578125 -0.12375 7.1875 -0.25 C7.92508545 -0.28641602 8.6626709 -0.32283203 9.42260742 -0.36035156 C12.94162205 -0.41927902 14.89840167 -0.06152947 17.921875 1.76953125 C20.58307837 4.62582284 20.94990906 6.25801846 21.203125 10.03515625 C20.86676221 13.28881934 19.34862106 14.84180768 17 17 C13.45421448 19.31561503 10.41853234 19.20837065 6.25 19.125 C3.15625 19.063125 3.15625 19.063125 0 19 C0 12.73 0 6.46 0 0 Z " fill="#FDFDFD" transform="translate(631,810)"/>
<path d="M0 0 C2.23854768 2.23854768 2.47949528 3.23980984 3.18359375 6.25390625 C3.38919922 7.10919922 3.59480469 7.96449219 3.80664062 8.84570312 C4.01482422 9.74224609 4.22300781 10.63878906 4.4375 11.5625 C5.84567416 17.55501402 7.3697381 23.39878074 9.43383789 29.20288086 C10 31 10 31 10 33 C4.06 33 -1.88 33 -8 33 C-5.42737999 21.97448569 -2.77715128 10.97565638 0 0 Z " fill="#FAFAFA" transform="translate(373,811)"/>
<path d="M0 0 C1.55399609 2.88883889 2.54700642 5.64177165 3.375 8.8125 C3.75205078 10.24529297 3.75205078 10.24529297 4.13671875 11.70703125 C4.42160156 12.79371094 4.70648437 13.88039063 5 15 C5.35930423 16.31678162 5.72004673 17.63317142 6.08203125 18.94921875 C6.45058847 20.29946071 6.81907863 21.64972097 7.1875 23 C7.53167969 24.258125 7.87585938 25.51625 8.23046875 26.8125 C9 30 9 30 9 33 C3.39 33 -2.22 33 -8 33 C-6.87472641 25.12308485 -6.87472641 25.12308485 -5.87890625 21.40625 C-5.66556641 20.60316406 -5.45222656 19.80007813 -5.23242188 18.97265625 C-5.01134766 18.15667969 -4.79027344 17.34070313 -4.5625 16.5 C-4.34529297 15.68402344 -4.12808594 14.86804688 -3.90429688 14.02734375 C-2.65085207 9.33727702 -1.34773787 4.66379989 0 0 Z " fill="#FBFBFB" transform="translate(560,811)"/>
<path d="M0 0 C0.66 0 1.32 0 2 0 C3.75 6.5625 3.75 6.5625 4.28808594 8.5847168 C5.23650673 12.14712865 6.19043713 15.70788574 7.15625 19.265625 C7.33961914 19.94423584 7.52298828 20.62284668 7.71191406 21.32202148 C8.22824743 23.23203326 8.74688568 25.1414215 9.265625 27.05078125 C10 30 10 30 10 32 C4.39 32 -1.22 32 -7 32 C-5.8760858 23.0086864 -5.8760858 23.0086864 -4.84375 19.4921875 C-4.62589844 18.73292969 -4.40804687 17.97367188 -4.18359375 17.19140625 C-3.84521484 16.04478516 -3.84521484 16.04478516 -3.5 14.875 C-2.05550184 9.93068914 -0.71907659 5.1152494 0 0 Z " fill="#FBFBFB" transform="translate(223,812)"/>
<path d="M0 0 C2.72422304 2.72422304 3.05060904 5.73407983 3.875 9.375 C5.35323989 15.62854828 7.11778098 21.67865862 9.265625 27.7421875 C10 30 10 30 10 32 C4.06 32 -1.88 32 -8 32 C-7.10465177 27.11002119 -6.21922492 22.37864741 -4.5625 17.6875 C-2.52973343 11.92108055 -1.30017019 5.96602919 0 0 Z " fill="#FAFAFA" transform="translate(357,690)"/>
<path d="M0 0 C0.66 0 1.32 0 2 0 C2.33 2.64 2.66 5.28 3 8 C2.34 8 1.68 8 1 8 C1 9.65 1 11.3 1 13 C0.67 13 0.34 13 0 13 C0 8.71 0 4.42 0 0 Z " fill="#ECECEC" transform="translate(239,695)"/>
</svg>
