<?xml version="1.0" encoding="utf-8"?>
<!-- Generator: Adobe Illustrator 25.0.1, SVG Export Plug-In . SVG Version: 6.00 Build 0)  -->
<svg version="1.0" id="Calque_1" xmlns="http://www.w3.org/2000/svg" xmlns:xlink="http://www.w3.org/1999/xlink" x="0px" y="0px"
	 viewBox="0 0 408.4 274.5" style="enable-background:new 0 0 408.4 274.5;" xml:space="preserve">
<style type="text/css">
	.st0{fill:#010202;}
</style>
<g>
	<polygon class="st0" points="120,89 94.7,89 44,139.7 44,160.2 94.7,160.2 94.7,185.5 120,185.5 120,139.7 69.3,139.7 	"/>
	<polygon class="st0" points="130.9,114.3 156.2,89 130.9,89 	"/>
	<polygon class="st0" points="181.5,114.3 181.5,89 156.2,89 156.2,114.3 130.9,139.7 130.9,165 156.2,165 156.2,139.7 	"/>
	<polygon class="st0" points="181.5,139.7 156.2,165 181.5,165 	"/>
</g>
<rect x="206" y="139.7" width="2" height="25.2"/>
<g>
	<path d="M224.4,148.9c-0.8-0.8-1.6-1-2.2-1c-0.4,0-0.9,0.1-1.3,0.3c-0.3,0.2-0.5,0.6-0.5,1c0,0.4,0.2,0.7,0.5,0.9
		c0.3,0.2,0.6,0.4,1.3,0.7l0.8,0.4c0.6,0.3,1.2,0.6,1.8,1.3c0.5,0.6,0.7,1.2,0.7,2.1c0,1.4-0.6,2.6-1.3,3.4
		c-1.1,1.1-2.5,1.3-3.8,1.3c-1,0-1.8-0.1-2.7-0.6c-0.7-0.4-1.3-0.9-1.8-1.4l1.7-2.2c0.3,0.4,0.7,0.8,1.1,1.1c0.4,0.3,1,0.4,1.6,0.4
		c0.5,0,1.1-0.1,1.5-0.4s0.6-0.7,0.6-1.2s-0.2-0.8-0.4-0.9c-0.1-0.1-0.4-0.3-1.1-0.6l-0.8-0.3c-0.2-0.1-1.2-0.5-1.9-1.2
		s-0.9-1.4-0.9-2.3c0-1.4,0.6-2.4,1.2-3c1.1-1.1,2.5-1.3,3.6-1.3s2.5,0.2,3.9,1.3L224.4,148.9z"/>
	<path d="M232,145.7l-1.6,13.3h-3.1l1.6-13.3H232z"/>
	<path d="M238.1,145.7l-1.3,10.7h4.2l-0.3,2.6h-7.2l1.6-13.3H238.1z"/>
	<path d="M247.1,145.7l-1.6,13.3h-3.1l1.6-13.3H247.1z"/>
	<path d="M258.4,158.6c-0.4,0.2-1.5,0.7-3.2,0.7c-2.5,0-4-1.1-4.7-1.8c-0.9-0.9-1.8-2.3-1.8-4.6c0-2.3,0.9-4.2,2.1-5.5
		c1.1-1.1,2.9-2.1,5.3-2.1c2.1,0,3.3,0.7,3.8,1l-0.4,3.3c-0.5-0.5-1.6-1.3-3.3-1.3c-1.3,0-2.3,0.3-3.2,1.3c-0.8,0.9-1.2,2.1-1.2,3.1
		c0,1.1,0.4,2.1,1,2.7s1.6,1,2.8,1c1.3,0,2.4-0.6,3.1-1.2L258.4,158.6z"/>
	<path d="M273.4,147.1c1.1,1.1,1.9,2.8,1.9,4.7c0,1.9-0.7,4-2.1,5.4c-1.7,1.7-3.8,2.1-5.5,2.1s-3.5-0.3-5.1-1.9
		c-0.9-0.9-1.9-2.5-1.9-4.7c0-2.3,0.9-4.2,2.2-5.4c1.7-1.6,3.8-2,5.5-2C271,145.4,272.5,146.3,273.4,147.1z M265.1,149.5
		c-0.8,0.8-1.2,1.9-1.2,3.1c0,1.2,0.5,2.2,1.1,2.8c0.9,0.9,2,1.1,2.9,1.1c0.9,0,2-0.1,3-1.1c0.7-0.7,1.2-1.9,1.2-3.3
		c0-0.9-0.2-1.9-1.1-2.8c-0.9-0.9-1.9-1-2.8-1C267,148.2,265.9,148.6,265.1,149.5z"/>
	<path d="M276.7,159l1.7-13.3h2.7l6.1,8.7l1.1-8.7h3.1l-1.7,13.3H287l-6.2-8.7l-1.1,8.7H276.7z"/>
	<path d="M300.8,145.7l2.3,8.5l4.4-8.5h3.4l-7.2,13.3h-2.1l-4-13.3H300.8z"/>
	<path d="M318.3,156.5h-5L312,159h-3.3l7-13.3h2.8l3.6,13.3H319L318.3,156.5z M317.8,154.1l-1.1-4.7l-2.2,4.7H317.8z"/>
	<path d="M328.3,145.7l-1.3,10.7h4.2l-0.3,2.6h-7.2l1.6-13.3H328.3z"/>
	<path d="M337.3,145.7l-1.3,10.7h4.2l-0.3,2.6h-7.2l1.6-13.3H337.3z"/>
	<path d="M350.2,148.3h-4.4l-0.3,2.6h4.2l-0.3,2.6h-4.2l-0.4,3h4.4L349,159h-7.4l1.6-13.3h7.4L350.2,148.3z"/>
	<path d="M355.6,152.8l-3.9-7.1h3.5l2.2,4.1l3.2-4.1h3.8l-5.7,7.1L358,159h-3.1L355.6,152.8z"/>
</g>
</svg>
