<?xml version="1.0" encoding="UTF-8"?>
<svg xmlns="http://www.w3.org/2000/svg" xmlns:xlink="http://www.w3.org/1999/xlink" width="2973px" height="2000px" viewBox="0 0 2967 2000" version="1.1">
<g id="surface1">
<path style=" stroke:none;fill-rule:nonzero;fill:rgb(0.392157%,0.784314%,0.784314%);fill-opacity:1;" d="M 871.792969 649.433594 L 687.988281 649.433594 L 319.65625 1017.800781 L 319.65625 1166.746094 L 687.988281 1166.746094 L 687.988281 1350.566406 L 871.792969 1350.566406 L 871.792969 1017.800781 L 503.460938 1017.800781 Z M 871.792969 649.433594 "/>
<path style=" stroke:none;fill-rule:nonzero;fill:rgb(0.392157%,0.784314%,0.784314%);fill-opacity:1;" d="M 950.980469 833.253906 L 1134.78125 649.433594 L 950.980469 649.433594 Z M 950.980469 833.253906 "/>
<path style=" stroke:none;fill-rule:nonzero;fill:rgb(0.392157%,0.784314%,0.784314%);fill-opacity:1;" d="M 1318.585938 833.253906 L 1318.585938 649.433594 L 1134.78125 649.433594 L 1134.78125 833.253906 L 950.980469 1017.800781 L 950.980469 1201.621094 L 1134.78125 1201.621094 L 1134.78125 1017.800781 Z M 1318.585938 833.253906 "/>
<path style=" stroke:none;fill-rule:nonzero;fill:rgb(0.392157%,0.784314%,0.784314%);fill-opacity:1;" d="M 1318.585938 1017.800781 L 1134.78125 1201.621094 L 1318.585938 1201.621094 Z M 1318.585938 1017.800781 "/>
<path style=" stroke:none;fill-rule:nonzero;fill:rgb(0%,0%,0%);fill-opacity:1;" d="M 1496.578125 1017.800781 L 1511.105469 1017.800781 L 1511.105469 1200.894531 L 1496.578125 1200.894531 Z M 1496.578125 1017.800781 "/>
<path style=" stroke:none;fill-rule:nonzero;fill:rgb(0%,0%,0%);fill-opacity:1;" d="M 1630.25 1084.644531 C 1624.441406 1078.832031 1618.628906 1077.378906 1614.269531 1077.378906 C 1611.363281 1077.378906 1607.730469 1078.105469 1604.824219 1079.558594 C 1602.644531 1081.011719 1601.191406 1083.917969 1601.191406 1086.824219 C 1601.191406 1089.730469 1602.644531 1091.910156 1604.824219 1093.363281 C 1607.003906 1094.816406 1609.183594 1096.269531 1614.269531 1098.449219 L 1620.082031 1101.355469 C 1624.441406 1103.535156 1628.796875 1105.714844 1633.15625 1110.800781 C 1636.789062 1115.160156 1638.242188 1119.519531 1638.242188 1126.058594 C 1638.242188 1136.230469 1633.882812 1144.949219 1628.796875 1150.761719 C 1620.808594 1158.753906 1610.636719 1160.207031 1601.191406 1160.207031 C 1593.925781 1160.207031 1588.113281 1159.480469 1581.578125 1155.847656 C 1576.492188 1152.941406 1572.132812 1149.308594 1568.5 1145.675781 L 1580.851562 1129.691406 C 1583.03125 1132.597656 1585.9375 1135.503906 1588.839844 1137.683594 C 1591.746094 1139.863281 1596.105469 1140.589844 1600.464844 1140.589844 C 1604.097656 1140.589844 1608.457031 1139.863281 1611.363281 1137.683594 C 1614.269531 1135.503906 1615.722656 1132.597656 1615.722656 1128.964844 C 1615.722656 1125.332031 1614.269531 1123.152344 1612.816406 1122.425781 C 1612.089844 1121.699219 1609.910156 1120.246094 1604.824219 1118.066406 L 1599.011719 1115.886719 C 1597.558594 1115.160156 1590.292969 1112.253906 1585.210938 1107.167969 C 1580.125 1102.082031 1578.671875 1096.996094 1578.671875 1090.457031 C 1578.671875 1080.285156 1583.03125 1073.019531 1587.386719 1068.660156 C 1595.378906 1060.667969 1605.550781 1059.214844 1613.542969 1059.214844 C 1621.535156 1059.214844 1631.703125 1060.667969 1641.875 1068.660156 Z M 1630.25 1084.644531 "/>
<path style=" stroke:none;fill-rule:nonzero;fill:rgb(0%,0%,0%);fill-opacity:1;" d="M 1685.464844 1061.394531 L 1673.839844 1158.027344 L 1651.320312 1158.027344 L 1662.945312 1061.394531 Z M 1685.464844 1061.394531 "/>
<path style=" stroke:none;fill-rule:nonzero;fill:rgb(0%,0%,0%);fill-opacity:1;" d="M 1729.78125 1061.394531 L 1720.335938 1139.136719 L 1750.851562 1139.136719 L 1748.671875 1158.027344 L 1696.363281 1158.027344 L 1707.988281 1061.394531 Z M 1729.78125 1061.394531 "/>
<path style=" stroke:none;fill-rule:nonzero;fill:rgb(0%,0%,0%);fill-opacity:1;" d="M 1795.164062 1061.394531 L 1783.542969 1158.027344 L 1761.019531 1158.027344 L 1772.644531 1061.394531 Z M 1795.164062 1061.394531 "/>
<path style=" stroke:none;fill-rule:nonzero;fill:rgb(0%,0%,0%);fill-opacity:1;" d="M 1877.257812 1155.121094 C 1874.355469 1156.574219 1866.363281 1160.207031 1854.011719 1160.207031 C 1835.847656 1160.207031 1824.953125 1152.214844 1819.867188 1147.128906 C 1813.328125 1140.589844 1806.789062 1130.417969 1806.789062 1113.707031 C 1806.789062 1096.996094 1813.328125 1083.191406 1822.046875 1073.746094 C 1830.039062 1065.753906 1843.113281 1058.488281 1860.550781 1058.488281 C 1875.804688 1058.488281 1884.523438 1063.574219 1888.15625 1065.753906 L 1885.25 1089.730469 C 1881.617188 1086.097656 1873.628906 1080.285156 1861.277344 1080.285156 C 1851.832031 1080.285156 1844.566406 1082.464844 1838.027344 1089.730469 C 1832.21875 1096.269531 1829.3125 1104.988281 1829.3125 1112.253906 C 1829.3125 1120.246094 1832.21875 1127.511719 1836.574219 1131.871094 C 1840.933594 1136.230469 1848.199219 1139.136719 1856.917969 1139.136719 C 1866.363281 1139.136719 1874.355469 1134.777344 1879.4375 1130.417969 Z M 1877.257812 1155.121094 "/>
<path style=" stroke:none;fill-rule:nonzero;fill:rgb(0%,0%,0%);fill-opacity:1;" d="M 1986.234375 1071.566406 C 1994.226562 1079.558594 2000.035156 1091.910156 2000.035156 1105.714844 C 2000.035156 1119.519531 1994.953125 1134.777344 1984.78125 1144.949219 C 1972.429688 1157.300781 1957.175781 1160.207031 1944.824219 1160.207031 C 1932.472656 1160.207031 1919.394531 1158.027344 1907.773438 1146.402344 C 1901.234375 1139.863281 1893.96875 1128.238281 1893.96875 1112.253906 C 1893.96875 1095.542969 1900.507812 1081.738281 1909.953125 1073.019531 C 1922.300781 1061.394531 1937.558594 1058.488281 1949.910156 1058.488281 C 1968.796875 1059.214844 1979.695312 1065.753906 1986.234375 1071.566406 Z M 1925.933594 1089.003906 C 1920.121094 1094.816406 1917.214844 1102.808594 1917.214844 1111.527344 C 1917.214844 1120.246094 1920.847656 1127.511719 1925.207031 1131.871094 C 1931.746094 1138.410156 1939.738281 1139.863281 1946.277344 1139.863281 C 1952.816406 1139.863281 1960.804688 1139.136719 1968.070312 1131.871094 C 1973.15625 1126.785156 1976.789062 1118.066406 1976.789062 1107.894531 C 1976.789062 1101.355469 1975.335938 1094.089844 1968.796875 1087.550781 C 1962.257812 1081.011719 1954.996094 1080.285156 1948.457031 1080.285156 C 1939.738281 1079.558594 1931.746094 1082.464844 1925.933594 1089.003906 Z M 1925.933594 1089.003906 "/>
<path style=" stroke:none;fill-rule:nonzero;fill:rgb(0%,0%,0%);fill-opacity:1;" d="M 2010.207031 1158.027344 L 2022.558594 1061.394531 L 2042.171875 1061.394531 L 2086.488281 1124.605469 L 2094.480469 1061.394531 L 2117.003906 1061.394531 L 2104.652344 1158.027344 L 2085.035156 1158.027344 L 2039.996094 1094.816406 L 2032.003906 1158.027344 Z M 2010.207031 1158.027344 "/>
<path style=" stroke:none;fill-rule:nonzero;fill:rgb(0%,0%,0%);fill-opacity:1;" d="M 2185.292969 1061.394531 L 2202.003906 1123.152344 L 2233.96875 1061.394531 L 2258.667969 1061.394531 L 2206.359375 1158.027344 L 2191.105469 1158.027344 L 2162.046875 1061.394531 Z M 2185.292969 1061.394531 "/>
<path style=" stroke:none;fill-rule:nonzero;fill:rgb(0%,0%,0%);fill-opacity:1;" d="M 2312.429688 1139.863281 L 2276.105469 1139.863281 L 2266.660156 1158.027344 L 2242.6875 1158.027344 L 2293.539062 1061.394531 L 2313.882812 1061.394531 L 2340.035156 1158.027344 L 2317.515625 1158.027344 Z M 2308.796875 1122.425781 L 2300.804688 1088.277344 L 2284.824219 1122.425781 Z M 2308.796875 1122.425781 "/>
<path style=" stroke:none;fill-rule:nonzero;fill:rgb(0%,0%,0%);fill-opacity:1;" d="M 2385.078125 1061.394531 L 2375.632812 1139.136719 L 2406.148438 1139.136719 L 2403.96875 1158.027344 L 2351.660156 1158.027344 L 2363.285156 1061.394531 Z M 2385.078125 1061.394531 "/>
<path style=" stroke:none;fill-rule:nonzero;fill:rgb(0%,0%,0%);fill-opacity:1;" d="M 2450.464844 1061.394531 L 2441.019531 1139.136719 L 2471.53125 1139.136719 L 2469.351562 1158.027344 L 2417.042969 1158.027344 L 2428.667969 1061.394531 Z M 2450.464844 1061.394531 "/>
<path style=" stroke:none;fill-rule:nonzero;fill:rgb(0%,0%,0%);fill-opacity:1;" d="M 2544.179688 1080.285156 L 2512.214844 1080.285156 L 2510.035156 1099.175781 L 2540.546875 1099.175781 L 2538.367188 1118.066406 L 2507.855469 1118.066406 L 2504.949219 1139.863281 L 2536.914062 1139.863281 L 2535.460938 1158.027344 L 2481.703125 1158.027344 L 2493.328125 1061.394531 L 2547.085938 1061.394531 Z M 2544.179688 1080.285156 "/>
<path style=" stroke:none;fill-rule:nonzero;fill:rgb(0%,0%,0%);fill-opacity:1;" d="M 2583.410156 1112.980469 L 2555.078125 1061.394531 L 2580.503906 1061.394531 L 2596.488281 1091.183594 L 2619.734375 1061.394531 L 2647.34375 1061.394531 L 2605.933594 1112.980469 L 2600.847656 1158.027344 L 2578.324219 1158.027344 Z M 2583.410156 1112.980469 "/>
</g>
</svg>
